<svg width="28" height="28" viewBox="0 0 28 28" fill="none" xmlns="http://www.w3.org/2000/svg">
<path d="M17.7199 3.56C16.6266 3.427 15.7866 3.293 15.1999 3.16C15.1999 2.36 15.4399 1.307 15.9199 0H26.3199C26.4799 0.96 26.5866 1.773 26.6399 2.44C25.2266 2.973 24.1199 3.32001 23.3199 3.48001L16.1199 13.6L23.7199 24.12L27.2799 24.48C27.2799 25.6 26.9732 26.773 26.3599 28H16.5999L16.2399 25.8C16.7466 25.613 17.4932 25.307 18.4799 24.88L13.0799 17.48L8.6399 24.16L11.3999 24.52C11.3999 25.64 11.0799 26.8 10.4399 28H0.759903L0.399902 25.8C1.5466 25.267 2.6666 24.88 3.7599 24.64L10.3199 13.6L3.0399 3.48001L0.599903 3.16C0.706603 1.72 0.946602 0.667 1.3199 0H12.1199C12.3332 1.147 12.4399 1.96 12.4399 2.44C10.9199 3 9.8132 3.34701 9.1199 3.48001C9.5466 4.12001 10.2399 5.12001 11.1999 6.48001C12.1599 7.81301 12.9466 8.94701 13.5599 9.88L17.7199 3.56Z" fill="#218E74"/>
</svg>
